<svg xmlns="http://www.w3.org/2000/svg" xmlns:xlink="http://www.w3.org/1999/xlink" viewBox="-3040 -4186 840 313" width="840" height="313">
  <defs>
    <style>
      .cls-1, .cls-4 {
        fill: #fff;
      }

      .cls-1 {
        stroke: #95989a;
      }

      .cls-2 {
        clip-path: url(#clip-sprite_1);
      }

      .cls-3 {
        fill: #2f2f2f;
      }

      .cls-5 {
        fill: #414042;
      }

      .cls-6 {
        fill: #ffd41c;
      }

      .cls-7 {
        fill: #262626;
      }

      .cls-8 {
        fill: #0076c7;
      }

      .cls-11, .cls-9 {
        fill: #25d366;
      }

      .cls-10 {
        fill: #fafafa;
      }

      .cls-10, .cls-11 {
        fill-rule: evenodd;
      }

      .cls-12, .cls-13 {
        fill: none;
      }

      .cls-13 {
        stroke: #2f2f2f;
      }

      .cls-14 {
        clip-path: url(#clip-path);
      }

      .cls-15 {
        fill: #c7c8c9;
      }

      .cls-16 {
        fill: #484848;
      }

      .cls-17 {
        clip-path: url(#clip-path-2);
      }

      .cls-18 {
        clip-path: url(#clip-path-3);
      }

      .cls-19 {
        fill: #484849;
      }

      .cls-20 {
        clip-path: url(#clip-path-4);
      }

      .cls-21 {
        fill: #434244;
      }

      .cls-22 {
        clip-path: url(#clip-path-5);
      }

      .cls-23 {
        clip-path: url(#clip-path-6);
      }
    </style>
    <clipPath id="clip-path">
      <rect id="rectangle-72" class="cls-1" width="75" height="75" transform="translate(103 2608)"/>
    </clipPath>
    <clipPath id="clip-path-2">
      <rect id="rectangle-72-2" data-name="rectangle-72" class="cls-1" width="75" height="75" transform="translate(317 2608)"/>
    </clipPath>
    <clipPath id="clip-path-3">
      <rect id="rectangle-72-3" data-name="rectangle-72" class="cls-1" width="75" height="75" transform="translate(531 2608)"/>
    </clipPath>
    <clipPath id="clip-path-4">
      <rect id="rectangle-72-4" data-name="rectangle-72" class="cls-1" width="75" height="75" transform="translate(745 2608)"/>
    </clipPath>
    <clipPath id="clip-path-5">
      <rect id="rectangle-72-5" data-name="rectangle-72" class="cls-1" width="75" height="75" transform="translate(957 2608)"/>
    </clipPath>
    <clipPath id="clip-path-6">
      <rect id="rectangle-72-6" data-name="rectangle-72" class="cls-1" width="75" height="75" transform="translate(1170 2608)"/>
    </clipPath>
    <clipPath id="clip-sprite_1">
      <rect x="-3040" y="-4186" width="840" height="313"/>
    </clipPath>
  </defs>
  <g id="sprite_1" data-name="sprite – 1" class="cls-2">
    <g id="fabelio-logo" transform="translate(-2960 -4096)">
      <path id="path" class="cls-3" d="M4.739,14.735v11.83h-3.5V14.735H0V11.484H1.239V5.669A6.315,6.315,0,0,1,2.232,1.64,4.849,4.849,0,0,1,6.192,0,23.019,23.019,0,0,1,8.53.293V3.6S6.8,3.345,6.317,3.345a1.267,1.267,0,0,0-1.257.662,6.479,6.479,0,0,0-.322,2.511v4.966H8.53v3.251H4.739Z"/>
      <path id="path-2" data-name="path" class="cls-3" d="M26.564,16.233h3.5V31.314h-3.5V29.733a6.688,6.688,0,0,1-9.8-.245,8.415,8.415,0,0,1-2.027-5.761,8.14,8.14,0,0,1,2.027-5.648,6.527,6.527,0,0,1,5.076-2.264,6.415,6.415,0,0,1,4.725,2.172V16.233ZM18.3,23.727a5.262,5.262,0,0,0,1.16,3.53,3.813,3.813,0,0,0,3,1.378A4.006,4.006,0,0,0,25.587,27.3a5.161,5.161,0,0,0,1.19-3.5,5.164,5.164,0,0,0-1.19-3.5,3.956,3.956,0,0,0-3.1-1.344,3.853,3.853,0,0,0-3,1.362A5.016,5.016,0,0,0,18.3,23.727Z" transform="translate(-4.425 -4.749)"/>
      <path id="path-3" data-name="path" class="cls-3" d="M46.043.6V13.417a6.437,6.437,0,0,1,4.74-2.172,6.533,6.533,0,0,1,5.078,2.277,8.122,8.122,0,0,1,2.029,5.634,8.3,8.3,0,0,1-2.045,5.761,6.6,6.6,0,0,1-5.125,2.26,6.522,6.522,0,0,1-4.677-2.015v1.581H42.565V.6Zm8.286,18.717a5.217,5.217,0,0,0-1.178-3.53,3.777,3.777,0,0,0-2.988-1.394,4.005,4.005,0,0,0-3.126,1.344A5.014,5.014,0,0,0,45.845,19.2a5.048,5.048,0,0,0,1.178,3.512,3.9,3.9,0,0,0,3.093,1.35,3.839,3.839,0,0,0,3-1.35A4.928,4.928,0,0,0,54.329,19.313Z" transform="translate(-12.781 -0.179)"/>
      <path id="path-4" data-name="path" class="cls-3" d="M82.444,24.593H71.64a4.575,4.575,0,0,0,1.21,2.957,3.679,3.679,0,0,0,2.739,1.085,3.573,3.573,0,0,0,2.15-.619,8.883,8.883,0,0,0,1.9-2.292l2.941,1.637a11.349,11.349,0,0,1-1.438,1.991,7.709,7.709,0,0,1-1.626,1.362,6.65,6.65,0,0,1-1.872.784,9.184,9.184,0,0,1-2.182.248,7.085,7.085,0,0,1-5.419-2.171A8.118,8.118,0,0,1,68,23.791,8.344,8.344,0,0,1,69.985,18a7.54,7.54,0,0,1,10.556-.061,8.323,8.323,0,0,1,1.918,5.832ZM78.87,21.75a3.337,3.337,0,0,0-3.515-2.791,3.652,3.652,0,0,0-1.191.195,3.393,3.393,0,0,0-1.795,1.433,4.056,4.056,0,0,0-.5,1.164Z" transform="translate(-20.419 -4.749)"/>
      <path id="path-5" data-name="path" class="cls-3" d="M97.567.6V26.744H94.083V.6Z" transform="translate(-28.25 -0.179)"/>
      <path id="path-6" data-name="path" class="cls-3" d="M117.012,23.664a7.507,7.507,0,0,1,2.337-5.556,8.243,8.243,0,0,1,11.425.017,7.682,7.682,0,0,1,2.325,5.666,7.643,7.643,0,0,1-2.339,5.68,7.994,7.994,0,0,1-5.776,2.277,7.658,7.658,0,0,1-5.677-2.323A7.807,7.807,0,0,1,117.012,23.664Zm3.562.064a5.073,5.073,0,0,0,1.209,3.576,4.688,4.688,0,0,0,6.529.018,4.963,4.963,0,0,0,1.224-3.515,4.961,4.961,0,0,0-1.224-3.515,4.633,4.633,0,0,0-6.5,0A4.829,4.829,0,0,0,120.574,23.727Z" transform="translate(-35.135 -4.749)"/>
      <g id="group" transform="translate(71.607 4.594)">
        <path id="path-7" data-name="path" class="cls-4" d="M109.029,6.933a4.918,4.918,0,0,0-3.73,0L102.335,12.3a17.835,17.835,0,0,0,4.83.736,17.873,17.873,0,0,0,4.83-.736Z" transform="translate(-102.335 -6.566)"/>
        <path id="path-8" data-name="path" class="cls-5" d="M108.092,30V16.412a5.836,5.836,0,0,1-1.409,0V30l-3.608.737v.452a30.263,30.263,0,0,0,8.621,0v-.452Z" transform="translate(-102.557 -9.522)"/>
      </g>
    </g>
    <g id="Group_5783" data-name="Group 5783" transform="translate(-2810 -4097.032)">
      <circle id="Ellipse_74" data-name="Ellipse 74" class="cls-4" cx="15" cy="15" r="15" transform="translate(0 0)"/>
      <path id="Path_6153" data-name="Path 6153" class="cls-6" d="M105.857,251.457a15.547,15.547,0,0,1-4.207-.638l2.578-4.679a3.61,3.61,0,0,1,1.627-.32,3.567,3.567,0,0,1,1.627.318l2.587,4.675A15.585,15.585,0,0,1,105.857,251.457Z" transform="translate(-90.855 -240.188)"/>
      <path id="Path_6154" data-name="Path 6154" class="cls-7" d="M108.568,291.8V280.67a5.111,5.111,0,0,1-.613.038,5.017,5.017,0,0,1-.613-.036V291.8l-3.142.642v.4a26.393,26.393,0,0,0,7.51-.005v-.394Z" transform="translate(-92.944 -268.738)"/>
    </g>
    <g id="group-1" transform="translate(-3792 -4808)">
      <circle id="ellipse-1" class="cls-8" cx="20" cy="20" r="20" transform="translate(1208 702)"/>
      <g id="Chat" transform="translate(1214.667 712.833)">
        <g id="Layer_1" transform="translate(0)">
          <path id="path-9" data-name="path" class="cls-4" d="M28.167,13H16.5A2.455,2.455,0,0,0,14,15.5v6.667a2.507,2.507,0,0,0,2.5,2.5h8.333L28.167,28V24.667a2.507,2.507,0,0,0,2.5-2.5V15.5A2.455,2.455,0,0,0,28.167,13Z" transform="translate(-4 -7.167)"/>
          <path id="path-10" data-name="path" class="cls-4" d="M16.167,6H4.5A2.455,2.455,0,0,0,2,8.5v6.667a2.507,2.507,0,0,0,2.5,2.5V21l3.333-3.333h2.5V14.333A4.126,4.126,0,0,1,14.5,10.167h4.167V8.5A2.455,2.455,0,0,0,16.167,6Z" transform="translate(-2 -6)"/>
        </g>
      </g>
    </g>
    <g id="Group_5784" data-name="Group 5784" transform="translate(-2464 -4105.999)">
      <path id="Path_6155" data-name="Path 6155" class="cls-9" d="M488.427,365.017A17.981,17.981,0,0,1,470.4,382.954c-4.977,0-15.3-2.642-15.3-2.642s-2.721-10.341-2.721-15.295a18.024,18.024,0,0,1,36.047,0Z" transform="translate(-450.318 -345.022)"/>
      <path id="Path_6156" data-name="Path 6156" class="cls-10" d="M555.293,451.523c-.124-.206-.457-.331-.955-.579s-2.944-1.446-3.4-1.616-.788-.248-1.119.248-1.285,1.616-1.576,1.942-.581.372-1.078.124a13.62,13.62,0,0,1-4-2.458,14.981,14.981,0,0,1-2.77-3.431c-.291-.5-.031-.76.218-1.01.224-.222.5-.579.747-.868a3.378,3.378,0,0,0,.5-.826.909.909,0,0,0-.041-.868c-.124-.248-1.117-2.681-1.53-3.673-.4-.966-.815-.834-1.119-.851-.287-.014-.622-.017-.955-.017a1.831,1.831,0,0,0-1.327.62,5.544,5.544,0,0,0-1.742,4.131,9.612,9.612,0,0,0,2.032,5.124c.249.331,3.51,5.333,8.5,7.479a28.664,28.664,0,0,0,2.837,1.045,6.811,6.811,0,0,0,3.134.2c.955-.143,2.944-1.2,3.359-2.355A4.14,4.14,0,0,0,555.293,451.523Z" transform="translate(-525.175 -426.975)"/>
      <g id="WA_Logo" data-name="WA Logo" transform="translate(0 -0.001)">
        <path id="Path_6157" data-name="Path 6157" class="cls-11" d="M464.964,331.232a19.879,19.879,0,0,0-31.348,23.916l-2.826,10.271,10.558-2.756a19.975,19.975,0,0,0,9.517,2.412h.009a19.9,19.9,0,0,0,19.916-19.821A19.653,19.653,0,0,0,464.964,331.232Zm-14.089,30.5h-.01a16.592,16.592,0,0,1-8.428-2.3l-.6-.356-6.266,1.636,1.672-6.083-.393-.623a16.57,16.57,0,1,1,14.027,7.724Z" transform="translate(-430.79 -325.419)"/>
      </g>
    </g>
    <g id="Group_5785" data-name="Group 5785" transform="translate(-3040 -4186)">
      <rect id="Rectangle_2158" data-name="Rectangle 2158" class="cls-12" width="30" height="30" transform="translate(345 89)"/>
      <g id="icons-03" transform="translate(347.8 122.756)">
        <g id="group-2" data-name="group" transform="translate(2.2 -29.756)">
          <path id="path-11" data-name="path" class="cls-13" d="M6.2,5.9H8.805l8.3,15.638,6.459-3.475" transform="translate(-6.2 -5.555)"/>
          <path id="path-12" data-name="path" class="cls-3" d="M19.534,7.748l4.5-2.317a1.726,1.726,0,0,1,2.28.685l3.962,7.424a1.624,1.624,0,0,1-.706,2.211l-4.5,2.317a1.726,1.726,0,0,1-2.28-.685L18.828,9.907A1.524,1.524,0,0,1,19.534,7.748Z" transform="translate(-11.881 -5.244)"/>
          <ellipse id="ellipse" class="cls-3" cx="2.171" cy="2.106" rx="2.171" ry="2.106" transform="translate(11.669 16.879)"/>
        </g>
      </g>
    </g>
    <g id="group-mask-41" class="cls-14" transform="translate(-3063 -6641)">
      <g id="_365" data-name="365" transform="translate(103 2608)">
        <rect id="rectangle" class="cls-12" width="75" height="75"/>
        <g id="group-3" data-name="group" transform="translate(7.589 7.588)">
          <path id="path-13" data-name="path" class="cls-15" d="M69.435,39.524l-5.447-6.556,1.445-8.4-8-2.945-2.945-8-8.4,1.446-6.558-5.45L32.966,15.06l-8.4-1.446-2.946,8-8,2.944,1.443,8.4L9.613,39.523l5.447,6.557-1.443,8.4,8,2.945,2.946,8,8.4-1.445,6.557,5.449,6.558-5.449,8.4,1.445,2.945-8,8-2.945-1.445-8.4ZM39.523,58.647A19.123,19.123,0,1,1,58.647,39.524,19.123,19.123,0,0,1,39.523,58.647" transform="translate(-9.613 -9.612)"/>
          <path id="path-14" data-name="path" class="cls-16" d="M37.476,42.369A3,3,0,0,1,35.614,45.3a3.337,3.337,0,0,1,2.293,3.254,4.028,4.028,0,0,1-4.342,4.193,4.311,4.311,0,0,1-4.474-3.422l1.692-.451a2.7,2.7,0,0,0,2.782,2.181,2.353,2.353,0,0,0,2.482-2.5,2.477,2.477,0,0,0-2.687-2.425h-1.5V44.5H33.4a2.079,2.079,0,0,0,2.219-2.143A2.1,2.1,0,0,0,33.4,40.133a2.463,2.463,0,0,0-2.443,1.973l-1.636-.695a4.1,4.1,0,0,1,4.1-2.97,3.824,3.824,0,0,1,4.061,3.928" transform="translate(-13.714 -15.681)"/>
          <path id="path-15" data-name="path" class="cls-16" d="M50.584,48.28a4.531,4.531,0,0,1-9.062,0,6,6,0,0,1,.978-2.9c.461-.849,3.606-6.636,3.606-6.636h2.106L45.7,43.731a2.046,2.046,0,0,1,.339-.019,4.486,4.486,0,0,1,4.549,4.568m-7.163,0a2.66,2.66,0,0,0,2.614,2.856,2.89,2.89,0,1,0-2.614-2.856" transform="translate(-16.331 -15.746)"/>
          <path id="path-16" data-name="path" class="cls-16" d="M62.7,40.44H57.339v3.988a4,4,0,0,1,1.823-.414,4.152,4.152,0,0,1,4.4,4.435,4.17,4.17,0,0,1-4.381,4.363,4.288,4.288,0,0,1-4.418-2.991l1.6-.752a2.62,2.62,0,0,0,2.708,2.049,2.584,2.584,0,0,0,2.614-2.747,2.5,2.5,0,0,0-2.6-2.668,3.763,3.763,0,0,0-2.443.845l-1.186-.563V38.75H62.7v1.69Z" transform="translate(-19.118 -15.746)"/>
        </g>
      </g>
    </g>
    <g id="group-mask-42" class="cls-17" transform="translate(-3157 -6641)">
      <g id="pengiriman" transform="translate(317 2608)">
        <rect id="rectangle-2" data-name="rectangle" class="cls-12" width="75" height="75"/>
        <g id="group-4" data-name="group" transform="translate(1.118 19.85)">
          <path id="path-17" data-name="path" class="cls-15" d="M27.067,50.817H55.946l4.528-25.671H31.595Z" transform="translate(-6.816 -25.144)"/>
          <path id="path-18" data-name="path" class="cls-16" d="M74.108,37.98l-4.72-9.628H62.966l-2.643-3.209L55.8,50.817H26.915l-.565,3.21h3.505a5.352,5.352,0,0,0-.58,1.605,3.932,3.932,0,0,0,3.966,4.813A6,6,0,0,0,38.9,55.632a4.532,4.532,0,0,0-.014-1.605H65.153a5.367,5.367,0,0,0-.577,1.605,3.931,3.931,0,0,0,3.966,4.813A6,6,0,0,0,74.2,55.632a4.55,4.55,0,0,0-.014-1.605h.3a3.892,3.892,0,0,0,3.774-3.21s.566-3.209,1.131-6.419-5.282-6.418-5.282-6.418M35.693,55.632a1.991,1.991,0,0,1-1.886,1.6,1.309,1.309,0,0,1-1.323-1.6,2,2,0,0,1,1.89-1.6,1.308,1.308,0,0,1,1.319,1.6M62.4,31.562h6.421L70.9,37.98h-9.63Zm8.593,24.069a2,2,0,0,1-1.885,1.6,1.306,1.306,0,0,1-1.323-1.6,1.994,1.994,0,0,1,1.885-1.6,1.308,1.308,0,0,1,1.323,1.6" transform="translate(-6.665 -25.143)"/>
          <line id="line" class="cls-12" x1="9.094" transform="translate(13.253 3.475)"/>
          <path id="path-19" data-name="path" class="cls-16" d="M27.093,30.105H18a.767.767,0,0,1,0-1.533h9.094a.767.767,0,1,1,0,1.533" transform="translate(-4.746 -25.865)"/>
          <line id="line-2" data-name="line" class="cls-12" x1="16.311" transform="translate(3.94 9.615)"/>
          <path id="path-20" data-name="path" class="cls-16" d="M22.513,37.881H6.2a.767.767,0,0,1,0-1.533H22.513a.767.767,0,1,1,0,1.533" transform="translate(-2.263 -27.502)"/>
          <line id="line-3" data-name="line" class="cls-12" x1="5.831" transform="translate(12.89 15.906)"/>
          <path id="path-21" data-name="path" class="cls-16" d="M23.37,45.853H17.539a.767.767,0,0,1,0-1.534H23.37a.767.767,0,1,1,0,1.534" transform="translate(-4.649 -29.18)"/>
          <line id="line-4" data-name="line" class="cls-12" x1="17.034" transform="translate(0.766 22.505)"/>
          <path id="path-22" data-name="path" class="cls-16" d="M19.216,54.211H2.182a.766.766,0,0,1,0-1.532H19.216a.766.766,0,1,1,0,1.532" transform="translate(-1.416 -30.94)"/>
        </g>
      </g>
    </g>
    <g id="group-mask-43" class="cls-18" transform="translate(-3251 -6641)">
      <g id="_30_hari" data-name="30 hari" transform="translate(531 2608)">
        <g id="group-5" data-name="group" transform="translate(10.701 9.992)">
          <path id="path-23" data-name="path" class="cls-15" d="M15.96,49.347V58.32A10.586,10.586,0,0,0,26.545,68.906H56.567A10.587,10.587,0,0,0,67.152,58.32V29.106A10.586,10.586,0,0,0,56.567,18.519H26.545A10.586,10.586,0,0,0,15.96,29.106V39.975h-2.4l4.374,5.617L22.3,39.975H19.9V29.106a6.649,6.649,0,0,1,6.647-6.649H56.567a6.648,6.648,0,0,1,6.647,6.649V58.32a6.649,6.649,0,0,1-6.647,6.649H26.545A6.649,6.649,0,0,1,19.9,58.32V49.347Z" transform="translate(-13.555 -13.891)"/>
          <path id="path-24" data-name="path" class="cls-19" d="M59.041,14.786a2.132,2.132,0,0,1,4.263,0v7.135a2.132,2.132,0,1,1-4.263,0V14.786Z" transform="translate(-23.131 -12.657)"/>
          <path id="path-25" data-name="path" class="cls-19" d="M31.99,14.786a2.132,2.132,0,0,1,4.263,0v7.135a2.132,2.132,0,0,1-4.263,0Z" transform="translate(-17.436 -12.657)"/>
          <path id="path-26" data-name="path" class="cls-19" d="M32.637,46.285h2.479a4.424,4.424,0,0,0,2.971-.969,3.457,3.457,0,0,0,1.1-2.762,3.785,3.785,0,0,0-.913-2.706,3.676,3.676,0,0,0-2.788-.963,3.884,3.884,0,0,0-2.7.947A3.158,3.158,0,0,0,31.732,42.3H27.665a6.15,6.15,0,0,1,1-3.415,6.7,6.7,0,0,1,2.78-2.4,9.053,9.053,0,0,1,3.993-.861,8.386,8.386,0,0,1,5.736,1.835,6.441,6.441,0,0,1,2.085,5.1,5.206,5.206,0,0,1-1.047,3.09,6.548,6.548,0,0,1-2.7,2.184,5.975,5.975,0,0,1,3.054,2.16A5.9,5.9,0,0,1,43.606,53.5a6.547,6.547,0,0,1-2.252,5.226,8.742,8.742,0,0,1-5.919,1.941,8.668,8.668,0,0,1-5.758-1.875A6.162,6.162,0,0,1,27.431,53.8H31.5a3.41,3.41,0,0,0,1.08,2.614,4.1,4.1,0,0,0,2.9,1,4.223,4.223,0,0,0,2.979-1A3.773,3.773,0,0,0,39.551,53.5a3.815,3.815,0,0,0-1.138-2.964A4.874,4.874,0,0,0,35.03,49.5H32.638V46.285Z" transform="translate(-16.476 -17.491)"/>
          <path id="path-27" data-name="path" class="cls-19" d="M66.712,50.071q0,5.259-1.966,7.929a6.954,6.954,0,0,1-5.987,2.669,7.039,7.039,0,0,1-5.952-2.6q-2-2.6-2.051-7.712V46.135q0-5.257,1.966-7.886a7.015,7.015,0,0,1,6-2.629,7.059,7.059,0,0,1,5.969,2.562q1.966,2.559,2.019,7.667V50.07h0Zm-4.07-4.555a10.321,10.321,0,0,0-.936-5.031A3.585,3.585,0,0,0,55.8,40.4a9.507,9.507,0,0,0-.987,4.731v5.526a10.585,10.585,0,0,0,.953,5.087,3.2,3.2,0,0,0,3,1.673,3.151,3.151,0,0,0,2.9-1.545,9.991,9.991,0,0,0,.987-4.848v-5.51h0Z" transform="translate(-21.387 -17.491)"/>
        </g>
        <rect id="rectangle-3" data-name="rectangle" class="cls-12" width="75" height="75"/>
      </g>
    </g>
    <g id="group-mask-44" class="cls-20" transform="translate(-3345 -6641)">
      <g id="dompet" transform="translate(745 2608)">
        <rect id="rectangle-4" data-name="rectangle" class="cls-12" width="75" height="75"/>
        <g id="group-6" data-name="group" transform="translate(15.934 10.88)">
          <path id="path-28" data-name="path" class="cls-15" d="M20.183,40.387H63.316V50.67H54.848A6.063,6.063,0,0,0,49.1,56.731s-.227,4.836,5.515,5.516h8.7V72.623H20.183Z" transform="translate(-20.183 -19.383)"/>
          <path id="path-29" data-name="path" class="cls-21" d="M58.905,29.11,47.329,14.286c-.749-1.135-1.817,0-1.817,0l-19.977,15.6c-3.246,2.5-2.5,2.656-2.5,2.656H56.864l2.042-1.884A1.085,1.085,0,0,0,58.905,29.11ZM39.089,22.595,44.6,18.35s1.044-.885,1.862-.272c0,0,1.067.862-.227,1.839l-5.631,4.4a1.382,1.382,0,0,1-1.656-.182C38.974,24.138,38.316,23.185,39.089,22.595ZM49.6,25.138,42.267,31.2a2,2,0,0,1-2.293-.091s-.954-1.157.024-1.952l7.219-5.834s1.338-1.2,2.541-.522C49.78,22.8,51.3,23.776,49.6,25.138Z" transform="translate(-20.768 -13.782)"/>
          <circle id="ellipse-2" data-name="ellipse" class="cls-15" cx="2.383" cy="2.383" r="2.383" transform="translate(32.916 34.602)"/>
        </g>
      </g>
    </g>
    <g id="group-mask-45" class="cls-22" transform="translate(-3437 -6641)">
      <g id="_0persen" data-name="0persen" transform="translate(957 2608)">
        <rect id="rectangle-5" data-name="rectangle" class="cls-12" width="75" height="75"/>
        <g id="group-7" data-name="group" transform="translate(14.293 9.91)">
          <path id="path-30" data-name="path" class="cls-15" d="M61.677,31.752,64.519,68.7a98.539,98.539,0,0,1-23.207,3.071A99.22,99.22,0,0,1,18.1,68.7l2.841-36.951Z" transform="translate(-18.104 -16.595)"/>
          <path id="path-31" data-name="path" class="cls-21" d="M44.235,62.7a2.927,2.927,0,0,1-.222,1.16,2.552,2.552,0,0,1-.606.867,2.616,2.616,0,0,1-.9.534,3.438,3.438,0,0,1-2.2,0,2.564,2.564,0,0,1-.9-.534,2.508,2.508,0,0,1-.6-.867,2.872,2.872,0,0,1-.223-1.16V60.66a2.857,2.857,0,0,1,.223-1.158,2.485,2.485,0,0,1,.6-.869,2.7,2.7,0,0,1,.9-.543,3.238,3.238,0,0,1,2.2,0,2.753,2.753,0,0,1,.9.543,2.553,2.553,0,0,1,.606.869,2.9,2.9,0,0,1,.222,1.158ZM42.679,60.72a1.656,1.656,0,0,0-.312-1.069,1.172,1.172,0,0,0-.958-.384,1.191,1.191,0,0,0-.96.374,1.645,1.645,0,0,0-.312,1.079v1.918q0,1.432,1.271,1.431a1.178,1.178,0,0,0,.958-.372,1.61,1.61,0,0,0,.312-1.059V60.72Zm.667,11.68H41.693L48.47,58.039H50.1Zm9.887-2.621a2.917,2.917,0,0,1-.222,1.159,2.505,2.505,0,0,1-.606.868,2.712,2.712,0,0,1-.9.544,3.238,3.238,0,0,1-2.2,0,2.674,2.674,0,0,1-.9-.544,2.532,2.532,0,0,1-.608-.868,2.917,2.917,0,0,1-.22-1.159V67.741a2.938,2.938,0,0,1,.22-1.16,2.508,2.508,0,0,1,.608-.867,2.644,2.644,0,0,1,.9-.544,3.25,3.25,0,0,1,2.2,0,2.7,2.7,0,0,1,.9.544,2.523,2.523,0,0,1,.606.867,2.91,2.91,0,0,1,.222,1.16ZM51.68,67.8a1.657,1.657,0,0,0-.313-1.07,1.168,1.168,0,0,0-.958-.382,1.187,1.187,0,0,0-.96.373,1.642,1.642,0,0,0-.312,1.079v1.916a1.64,1.64,0,0,0,.312,1.079,1.19,1.19,0,0,0,.96.374,1.16,1.16,0,0,0,.958-.384,1.646,1.646,0,0,0,.313-1.069Z" transform="translate(-22.415 -22.099)"/>
          <path id="path-32" data-name="path" class="cls-21" d="M36.93,27.865V26.742c0-5.877,1.491-11.086,7.368-11.086s7.366,5.209,7.366,11.086v1.123H56.3V26.742c0-7.839-3.981-14.189-11.815-14.189S32.293,18.9,32.293,26.742v1.123Z" transform="translate(-21.091 -12.553)"/>
          <path id="path-33" data-name="path" class="cls-21" d="M51.62,33.678c0,5.455-1.464,10.464-7.344,10.464s-7.341-5.008-7.341-10.464H32.2c0,7.367,4.24,14.188,12.079,14.188s12.076-6.822,12.076-14.188Z" transform="translate(-21.072 -17)"/>
        </g>
      </g>
    </g>
    <g id="group-mask-46" class="cls-23" transform="translate(-3530 -6641)">
      <g id="service" transform="translate(1170 2608)">
        <rect id="rectangle-6" data-name="rectangle" class="cls-12" width="75" height="75"/>
        <g id="group-8" data-name="group" transform="translate(15.08 8.789)">
          <circle id="ellipse-3" data-name="ellipse" class="cls-15" cx="15.666" cy="15.666" r="15.666" transform="translate(6.963 5.708)"/>
          <path id="path-34" data-name="path" class="cls-15" d="M19.1,77.8s2.162-21.791,22.69-22.69c0,0,17.647-2.161,22.149,22.69Z" transform="translate(-19.101 -20.382)"/>
          <path id="path-35" data-name="path" class="cls-16" d="M61.133,27.475a10.718,10.718,0,0,0-1.482-.572c-.684-16.769-17.305-15.758-17.305-15.758C23.419,12.276,25.265,26.827,25.265,26.827a10.432,10.432,0,0,0-1.719.635c-1.656.783-2.341,4.161-2.341,4.161v6.106c.27,1.432,2.754,3.257,2.754,3.257,4.664,2.216,5.348-1.825,5.348-1.825V29.15c0-1.614-.716-2.293-1.656-2.5C28.24,13.256,42.33,13.5,42.33,13.5c14.5.166,14.694,13.134,14.694,13.134-.939.212-1.67.89-1.67,2.5V39.149a3.185,3.185,0,0,0,1.75,2.275s-.222,4.268-5.874,4.042c0,0-1.32-4.027-5.3-3.846,0,0-5.269-.075-5.333,5.429,0,0,0,4.433,5.27,4.794a5.58,5.58,0,0,0,5.3-3.814s7.992.316,8.772-6.757c.238-.09.509-.195.778-.316,0,0,2.47-1.824,2.755-3.257V31.594C63.473,31.637,62.788,28.261,61.133,27.475ZM45.989,49.635a2.586,2.586,0,1,1,2.784-2.578A2.689,2.689,0,0,1,45.989,49.635Z" transform="translate(-19.544 -11.133)"/>
        </g>
      </g>
    </g>
  </g>
</svg>
